<svg width="18" height="18" viewBox="0 0 18 18" fill="none" xmlns="http://www.w3.org/2000/svg">
<path d="M9 13.5C8.86193 13.5 8.75 13.6119 8.75 13.75C8.75 13.8881 8.86193 14 9 14C9.13807 14 9.25 13.8881 9.25 13.75C9.25 13.6119 9.13807 13.5 9 13.5V13.5" stroke="#2A2722" stroke-width="1.5" stroke-linecap="round" stroke-linejoin="round"/>
<path d="M9 11.5V6.5" stroke="#2A2722" stroke-width="1.5" stroke-linecap="round"/>
<path fill-rule="evenodd" clip-rule="evenodd" d="M10.0807 2.17333C9.87826 1.76125 9.45911 1.50015 9.00001 1.50015C8.5409 1.50015 8.12175 1.76125 7.91934 2.17333L1.60401 15.0387C1.44946 15.3531 1.46814 15.725 1.65343 16.0223C1.83871 16.3196 2.16434 16.5002 2.51467 16.5H15.4853C15.8357 16.5002 16.1613 16.3196 16.3466 16.0223C16.5319 15.725 16.5506 15.3531 16.396 15.0387L10.0807 2.17333Z" stroke="#2A2722" stroke-width="1.5" stroke-linecap="round" stroke-linejoin="round"/>
</svg>
