<svg width="18" height="20" viewBox="0 0 18 20" fill="none" xmlns="http://www.w3.org/2000/svg">
<path fill-rule="evenodd" clip-rule="evenodd" d="M9 10C10.5533 10 11.8125 8.7408 11.8125 7.1875C11.8125 5.6342 10.5533 4.375 9 4.375C7.4467 4.375 6.1875 5.6342 6.1875 7.1875C6.1875 8.7408 7.4467 10 9 10Z" stroke="#5B5A57" stroke-width="1.5" stroke-linecap="round" stroke-linejoin="round"/>
<path fill-rule="evenodd" clip-rule="evenodd" d="M9 1.5625C12.1066 1.5625 14.625 4.0809 14.625 7.1875C14.625 9.74275 10.8195 16.15 9.46875 18.1863C9.36453 18.3434 9.18854 18.4378 9 18.4378C8.81146 18.4378 8.63547 18.3434 8.53125 18.1863C7.1805 16.15 3.375 9.74275 3.375 7.1875C3.375 4.0809 5.8934 1.5625 9 1.5625Z" stroke="#5B5A57" stroke-width="1.5" stroke-linecap="round" stroke-linejoin="round"/>
</svg>
